<svg xmlns="http://www.w3.org/2000/svg" viewBox="0 0 1000 1000" width="1000" height="1000">
<defs>

  <!-- Ink roughness: displaces edges to mimic brushstroke / hand-drawn ink -->
  <filter id="ink" x="-20%" y="-20%" width="140%" height="140%">
    <feTurbulence type="turbulence" baseFrequency="0.048 0.072" numOctaves="4" seed="17" result="noise"/>
    <feDisplacementMap in="SourceGraphic" in2="noise" scale="7" xChannelSelector="R" yChannelSelector="G"/>
  </filter>

  <!-- Soft edge glow layered behind petals -->
  <filter id="glow" x="-45%" y="-45%" width="190%" height="190%">
    <feGaussianBlur stdDeviation="10" result="blur"/>
    <feMerge>
      <feMergeNode in="blur"/>
      <feMergeNode in="SourceGraphic"/>
    </feMerge>
  </filter>

  <!-- Broad ambient bloom — very soft, wide halo -->
  <filter id="bloom" x="-150%" y="-150%" width="400%" height="400%">
    <feGaussianBlur stdDeviation="42"/>
  </filter>

  <!-- Stem ink texture (lighter displacement) -->
  <filter id="ink-stem" x="-60%" y="-5%" width="220%" height="110%">
    <feTurbulence type="turbulence" baseFrequency="0.06 0.02" numOctaves="3" seed="7" result="noise"/>
    <feDisplacementMap in="SourceGraphic" in2="noise" scale="4" xChannelSelector="R" yChannelSelector="G"/>
  </filter>

  <!--
    Petal templates — all point UPWARD (-Y axis from origin).
    They are placed via <use transform="rotate(angle)"> within a
    group translated to the flower center.
    Each layer is progressively shorter and slightly wider at base.
  -->

  <!-- Layer 1: outermost, longest — ri=32, ro=290 -->
  <path id="p1" d="M 4.5,-32
    C 7,-122 2.8,-208 0.9,-290
    L -0.9,-290
    C -2.8,-208 -7,-122 -4.5,-32 Z"/>

  <!-- Layer 2 — ri=30, ro=222 -->
  <path id="p2" d="M 5.5,-30
    C 8.5,-105 3.3,-178 1.1,-222
    L -1.1,-222
    C -3.3,-178 -8.5,-105 -5.5,-30 Z"/>

  <!-- Layer 3 — ri=27, ro=156 -->
  <path id="p3" d="M 6.5,-27
    C 10,-78 4.2,-126 1.5,-156
    L -1.5,-156
    C -4.2,-126 -10,-78 -6.5,-27 Z"/>

  <!-- Layer 4 — ri=22, ro=100 -->
  <path id="p4" d="M 7.5,-22
    C 11.5,-52 5.8,-82 2,-100
    L -2,-100
    C -5.8,-82 -11.5,-52 -7.5,-22 Z"/>

  <!-- Layer 5: innermost — ri=16, ro=62 -->
  <path id="p5" d="M 8.5,-16
    C 13,-34 7.2,-50 2.4,-62
    L -2.4,-62
    C -7.2,-50 -13,-34 -8.5,-16 Z"/>

</defs>

<!-- ════════════════════ BACKGROUND ════════════════════ -->
<rect width="1000" height="1000" fill="#000000"/>

<!-- ════════════════════ AMBIENT BLOOM (soft wide glow behind flower) ════════════════════ -->
<g transform="translate(500,455)" filter="url(#bloom)" opacity="0.30">
  <ellipse rx="220" ry="240" fill="#ffffff"/>
</g>

<!-- ════════════════════ INK SPLASH STREAKS (very faint radial wisps) ════════════════════ -->
<g transform="translate(500,455)" stroke="#ffffff" stroke-linecap="round" fill="none">
  <line x1="0" y1="-303" x2="1"    y2="-362" stroke-width="1.1" opacity="0.07"/>
  <line x1="0" y1="-299" x2="-1"   y2="-355" stroke-width="0.9" opacity="0.06" transform="rotate(15)"/>
  <line x1="0" y1="-306" x2="2"    y2="-366" stroke-width="1"   opacity="0.07" transform="rotate(28)"/>
  <line x1="0" y1="-300" x2="0"    y2="-350" stroke-width="1.2" opacity="0.065" transform="rotate(45)"/>
  <line x1="0" y1="-302" x2="-2"   y2="-358" stroke-width="0.9" opacity="0.06" transform="rotate(60)"/>
  <line x1="0" y1="-298" x2="1"    y2="-362" stroke-width="1"   opacity="0.07" transform="rotate(75)"/>
  <line x1="0" y1="-305" x2="0"    y2="-354" stroke-width="1.1" opacity="0.065" transform="rotate(90)"/>
  <line x1="0" y1="-300" x2="-1"   y2="-360" stroke-width="0.9" opacity="0.06" transform="rotate(108)"/>
  <line x1="0" y1="-304" x2="2"    y2="-352" stroke-width="1.2" opacity="0.07" transform="rotate(122)"/>
  <line x1="0" y1="-299" x2="0"    y2="-358" stroke-width="1"   opacity="0.065" transform="rotate(138)"/>
  <line x1="0" y1="-302" x2="-2"   y2="-365" stroke-width="0.9" opacity="0.06" transform="rotate(152)"/>
  <line x1="0" y1="-301" x2="1"    y2="-355" stroke-width="1.1" opacity="0.07" transform="rotate(165)"/>
  <line x1="0" y1="-305" x2="0"    y2="-362" stroke-width="1"   opacity="0.065" transform="rotate(180)"/>
  <line x1="0" y1="-300" x2="-1"   y2="-350" stroke-width="0.9" opacity="0.06" transform="rotate(195)"/>
  <line x1="0" y1="-303" x2="2"    y2="-358" stroke-width="1.2" opacity="0.07" transform="rotate(210)"/>
  <line x1="0" y1="-298" x2="0"    y2="-355" stroke-width="1"   opacity="0.065" transform="rotate(225)"/>
  <line x1="0" y1="-306" x2="-1"   y2="-364" stroke-width="0.9" opacity="0.06" transform="rotate(242)"/>
  <line x1="0" y1="-301" x2="1"    y2="-352" stroke-width="1.1" opacity="0.07" transform="rotate(258)"/>
  <line x1="0" y1="-304" x2="0"    y2="-360" stroke-width="1"   opacity="0.065" transform="rotate(270)"/>
  <line x1="0" y1="-300" x2="-2"   y2="-356" stroke-width="0.9" opacity="0.06" transform="rotate(285)"/>
  <line x1="0" y1="-302" x2="2"    y2="-362" stroke-width="1.2" opacity="0.07" transform="rotate(300)"/>
  <line x1="0" y1="-299" x2="0"    y2="-354" stroke-width="1"   opacity="0.065" transform="rotate(315)"/>
  <line x1="0" y1="-305" x2="-1"   y2="-358" stroke-width="0.9" opacity="0.06" transform="rotate(330)"/>
  <line x1="0" y1="-301" x2="1"    y2="-365" stroke-width="1.1" opacity="0.07" transform="rotate(348)"/>
</g>

<!-- Tiny ink droplets at outer edge -->
<g fill="#ffffff">
  <circle cx="500"  cy="148"  r="1.6" opacity="0.09"/>
  <circle cx="519"  cy="160"  r="0.9" opacity="0.07"/>
  <circle cx="481"  cy="155"  r="1.1" opacity="0.07"/>
  <circle cx="760"  cy="432"  r="1.5" opacity="0.08"/>
  <circle cx="748"  cy="452"  r="0.9" opacity="0.06"/>
  <circle cx="240"  cy="422"  r="1.5" opacity="0.08"/>
  <circle cx="252"  cy="444"  r="0.9" opacity="0.06"/>
  <circle cx="500"  cy="768"  r="1.4" opacity="0.07"/>
  <circle cx="510"  cy="756"  r="0.8" opacity="0.05"/>
  <circle cx="778"  cy="348"  r="1.1" opacity="0.06"/>
  <circle cx="224"  cy="362"  r="1.1" opacity="0.06"/>
  <circle cx="628"  cy="175"  r="0.9" opacity="0.06"/>
  <circle cx="376"  cy="172"  r="0.9" opacity="0.06"/>
  <circle cx="680"  cy="720"  r="0.8" opacity="0.05"/>
  <circle cx="322"  cy="715"  r="0.8" opacity="0.05"/>
</g>

<!-- ════════════════════ SOFT GLOW HALO (blurred ghost petals behind main flower) ════════════════════ -->
<g transform="translate(500,455)" filter="url(#glow)" opacity="0.36">
  <g fill="white">
    <use href="#p1" transform="rotate(0)"/>
    <use href="#p1" transform="rotate(22.5)"/>
    <use href="#p1" transform="rotate(45)"/>
    <use href="#p1" transform="rotate(67.5)"/>
    <use href="#p1" transform="rotate(90)"/>
    <use href="#p1" transform="rotate(112.5)"/>
    <use href="#p1" transform="rotate(135)"/>
    <use href="#p1" transform="rotate(157.5)"/>
    <use href="#p1" transform="rotate(180)"/>
    <use href="#p1" transform="rotate(202.5)"/>
    <use href="#p1" transform="rotate(225)"/>
    <use href="#p1" transform="rotate(247.5)"/>
    <use href="#p1" transform="rotate(270)"/>
    <use href="#p1" transform="rotate(292.5)"/>
    <use href="#p1" transform="rotate(315)"/>
    <use href="#p1" transform="rotate(337.5)"/>
  </g>
</g>

<!-- ════════════════════ MAIN FLOWER (ink-textured) ════════════════════ -->
<g transform="translate(500,455)" filter="url(#ink)">

  <!-- ── Layer 1: 32 outermost petals, 11.25° step ── -->
  <g fill="white" opacity="0.70">
    <use href="#p1" transform="rotate(0)"/>
    <use href="#p1" transform="rotate(11.25)"/>
    <use href="#p1" transform="rotate(22.5)"/>
    <use href="#p1" transform="rotate(33.75)"/>
    <use href="#p1" transform="rotate(45)"/>
    <use href="#p1" transform="rotate(56.25)"/>
    <use href="#p1" transform="rotate(67.5)"/>
    <use href="#p1" transform="rotate(78.75)"/>
    <use href="#p1" transform="rotate(90)"/>
    <use href="#p1" transform="rotate(101.25)"/>
    <use href="#p1" transform="rotate(112.5)"/>
    <use href="#p1" transform="rotate(123.75)"/>
    <use href="#p1" transform="rotate(135)"/>
    <use href="#p1" transform="rotate(146.25)"/>
    <use href="#p1" transform="rotate(157.5)"/>
    <use href="#p1" transform="rotate(168.75)"/>
    <use href="#p1" transform="rotate(180)"/>
    <use href="#p1" transform="rotate(191.25)"/>
    <use href="#p1" transform="rotate(202.5)"/>
    <use href="#p1" transform="rotate(213.75)"/>
    <use href="#p1" transform="rotate(225)"/>
    <use href="#p1" transform="rotate(236.25)"/>
    <use href="#p1" transform="rotate(247.5)"/>
    <use href="#p1" transform="rotate(258.75)"/>
    <use href="#p1" transform="rotate(270)"/>
    <use href="#p1" transform="rotate(281.25)"/>
    <use href="#p1" transform="rotate(292.5)"/>
    <use href="#p1" transform="rotate(303.75)"/>
    <use href="#p1" transform="rotate(315)"/>
    <use href="#p1" transform="rotate(326.25)"/>
    <use href="#p1" transform="rotate(337.5)"/>
    <use href="#p1" transform="rotate(348.75)"/>
  </g>

  <!-- ── Layer 2: 24 petals, 15° step, +5° phase ── -->
  <g fill="white" opacity="0.77">
    <use href="#p2" transform="rotate(5)"/>
    <use href="#p2" transform="rotate(20)"/>
    <use href="#p2" transform="rotate(35)"/>
    <use href="#p2" transform="rotate(50)"/>
    <use href="#p2" transform="rotate(65)"/>
    <use href="#p2" transform="rotate(80)"/>
    <use href="#p2" transform="rotate(95)"/>
    <use href="#p2" transform="rotate(110)"/>
    <use href="#p2" transform="rotate(125)"/>
    <use href="#p2" transform="rotate(140)"/>
    <use href="#p2" transform="rotate(155)"/>
    <use href="#p2" transform="rotate(170)"/>
    <use href="#p2" transform="rotate(185)"/>
    <use href="#p2" transform="rotate(200)"/>
    <use href="#p2" transform="rotate(215)"/>
    <use href="#p2" transform="rotate(230)"/>
    <use href="#p2" transform="rotate(245)"/>
    <use href="#p2" transform="rotate(260)"/>
    <use href="#p2" transform="rotate(275)"/>
    <use href="#p2" transform="rotate(290)"/>
    <use href="#p2" transform="rotate(305)"/>
    <use href="#p2" transform="rotate(320)"/>
    <use href="#p2" transform="rotate(335)"/>
    <use href="#p2" transform="rotate(350)"/>
  </g>

  <!-- ── Layer 3: 18 petals, 20° step, +3° phase ── -->
  <g fill="white" opacity="0.84">
    <use href="#p3" transform="rotate(3)"/>
    <use href="#p3" transform="rotate(23)"/>
    <use href="#p3" transform="rotate(43)"/>
    <use href="#p3" transform="rotate(63)"/>
    <use href="#p3" transform="rotate(83)"/>
    <use href="#p3" transform="rotate(103)"/>
    <use href="#p3" transform="rotate(123)"/>
    <use href="#p3" transform="rotate(143)"/>
    <use href="#p3" transform="rotate(163)"/>
    <use href="#p3" transform="rotate(183)"/>
    <use href="#p3" transform="rotate(203)"/>
    <use href="#p3" transform="rotate(223)"/>
    <use href="#p3" transform="rotate(243)"/>
    <use href="#p3" transform="rotate(263)"/>
    <use href="#p3" transform="rotate(283)"/>
    <use href="#p3" transform="rotate(303)"/>
    <use href="#p3" transform="rotate(323)"/>
    <use href="#p3" transform="rotate(343)"/>
  </g>

  <!-- ── Layer 4: 12 petals, 30° step, +7.5° phase ── -->
  <g fill="white" opacity="0.91">
    <use href="#p4" transform="rotate(7.5)"/>
    <use href="#p4" transform="rotate(37.5)"/>
    <use href="#p4" transform="rotate(67.5)"/>
    <use href="#p4" transform="rotate(97.5)"/>
    <use href="#p4" transform="rotate(127.5)"/>
    <use href="#p4" transform="rotate(157.5)"/>
    <use href="#p4" transform="rotate(187.5)"/>
    <use href="#p4" transform="rotate(217.5)"/>
    <use href="#p4" transform="rotate(247.5)"/>
    <use href="#p4" transform="rotate(277.5)"/>
    <use href="#p4" transform="rotate(307.5)"/>
    <use href="#p4" transform="rotate(337.5)"/>
  </g>

  <!-- ── Layer 5: 8 innermost petals, 45° step, +11.25° phase ── -->
  <g fill="white" opacity="0.97">
    <use href="#p5" transform="rotate(11.25)"/>
    <use href="#p5" transform="rotate(56.25)"/>
    <use href="#p5" transform="rotate(101.25)"/>
    <use href="#p5" transform="rotate(146.25)"/>
    <use href="#p5" transform="rotate(191.25)"/>
    <use href="#p5" transform="rotate(236.25)"/>
    <use href="#p5" transform="rotate(281.25)"/>
    <use href="#p5" transform="rotate(326.25)"/>
  </g>

  <!-- Center dome — bright white core -->
  <circle r="23"  fill="white" opacity="1"/>
  <circle r="12"  fill="white" opacity="0.72"/>
  <circle r="4.5" fill="white" opacity="1"/>

</g>

<!-- ════════════════════ STEM ════════════════════ -->
<line
  x1="500" y1="478"
  x2="500" y2="762"
  stroke="white"
  stroke-width="2.4"
  stroke-linecap="round"
  opacity="0.52"
  filter="url(#ink-stem)"
/>

</svg>
